# Blender v2.73 (sub 0) OBJ File: ''
# www.blender.org
mtllib arrow.mtl
o Cylinder
v 0.000000 -0.728850 -0.109742
v 0.000000 0.351700 -0.109742
v 0.021410 -0.728850 -0.107634
v 0.021410 0.351700 -0.107634
v 0.041997 -0.728850 -0.101389
v 0.041997 0.351700 -0.101389
v 0.060970 -0.728850 -0.091247
v 0.060970 0.351700 -0.091247
v 0.077599 -0.728850 -0.077599
v 0.077599 0.351700 -0.077599
v 0.091247 -0.728850 -0.060970
v 0.091247 0.351700 -0.060970
v 0.101389 -0.728850 -0.041997
v 0.101389 0.351700 -0.041997
v 0.107634 -0.728850 -0.021410
v 0.107634 0.351700 -0.021410
v 0.109742 -0.728850 -0.000000
v 0.109742 0.351700 -0.000000
v 0.107634 -0.728850 0.021410
v 0.107634 0.351700 0.021410
v 0.101389 -0.728850 0.041997
v 0.101389 0.351700 0.041997
v 0.091247 -0.728850 0.060970
v 0.091247 0.351700 0.060970
v 0.077599 -0.728850 0.077599
v 0.077599 0.351700 0.077599
v 0.060970 -0.728850 0.091247
v 0.060970 0.351700 0.091247
v 0.041997 -0.728850 0.101389
v 0.041997 0.351700 0.101389
v 0.021410 -0.728850 0.107634
v 0.021410 0.351700 0.107634
v -0.000000 -0.728850 0.109742
v -0.000000 0.351700 0.109742
v -0.021410 -0.728850 0.107634
v -0.021410 0.351700 0.107634
v -0.041997 -0.728850 0.101389
v -0.041997 0.351700 0.101389
v -0.060970 -0.728850 0.091247
v -0.060970 0.351700 0.091247
v -0.077600 -0.728850 0.077599
v -0.077600 0.351700 0.077599
v -0.091247 -0.728850 0.060969
v -0.091247 0.351700 0.060969
v -0.101389 -0.728850 0.041996
v -0.101389 0.351700 0.041996
v -0.107634 -0.728850 0.021410
v -0.107634 0.351700 0.021410
v -0.109742 -0.728850 -0.000000
v -0.109742 0.351700 -0.000000
v -0.107634 -0.728850 -0.021410
v -0.107634 0.351700 -0.021410
v -0.101389 -0.728850 -0.041997
v -0.101389 0.351700 -0.041997
v -0.091247 -0.728850 -0.060970
v -0.091247 0.351700 -0.060970
v -0.077599 -0.728850 -0.077600
v -0.077599 0.351700 -0.077600
v -0.060969 -0.728850 -0.091247
v -0.060969 0.351700 -0.091247
v -0.041996 -0.728850 -0.101389
v -0.041996 0.351700 -0.101389
v -0.021409 -0.728850 -0.107634
v -0.021409 0.351700 -0.107634
vn 0.098000 0.000000 -0.995200
vn 0.290300 0.000000 -0.956900
vn 0.471400 0.000000 -0.881900
vn 0.634400 0.000000 -0.773000
vn 0.773000 0.000000 -0.634400
vn 0.881900 0.000000 -0.471400
vn 0.956900 0.000000 -0.290300
vn 0.995200 0.000000 -0.098000
vn 0.995200 0.000000 0.098000
vn 0.956900 0.000000 0.290300
vn 0.881900 0.000000 0.471400
vn 0.773000 0.000000 0.634400
vn 0.634400 0.000000 0.773000
vn 0.471400 0.000000 0.881900
vn 0.290300 0.000000 0.956900
vn 0.098000 0.000000 0.995200
vn -0.098000 0.000000 0.995200
vn -0.290300 0.000000 0.956900
vn -0.471400 0.000000 0.881900
vn -0.634400 0.000000 0.773000
vn -0.773000 0.000000 0.634400
vn -0.881900 0.000000 0.471400
vn -0.956900 0.000000 0.290300
vn -0.995200 0.000000 0.098000
vn -0.995200 0.000000 -0.098000
vn -0.956900 0.000000 -0.290300
vn -0.881900 0.000000 -0.471400
vn -0.773000 0.000000 -0.634400
vn -0.634400 0.000000 -0.773000
vn -0.471400 0.000000 -0.881900
vn 0.000000 1.000000 0.000000
vn -0.098000 0.000000 -0.995200
vn -0.290300 0.000000 -0.956900
vn 0.000000 -1.000000 -0.000000
usemtl None
s off
f 2//1 4//1 3//1
f 4//2 6//2 5//2
f 6//3 8//3 7//3
f 8//4 10//4 9//4
f 10//5 12//5 11//5
f 12//6 14//6 13//6
f 14//7 16//7 15//7
f 16//8 18//8 17//8
f 18//9 20//9 19//9
f 20//10 22//10 21//10
f 22//11 24//11 23//11
f 24//12 26//12 25//12
f 26//13 28//13 27//13
f 28//14 30//14 29//14
f 30//15 32//15 31//15
f 32//16 34//16 33//16
f 34//17 36//17 35//17
f 36//18 38//18 37//18
f 38//19 40//19 39//19
f 40//20 42//20 41//20
f 42//21 44//21 43//21
f 44//22 46//22 45//22
f 46//23 48//23 47//23
f 48//24 50//24 49//24
f 50//25 52//25 51//25
f 52//26 54//26 53//26
f 54//27 56//27 55//27
f 56//28 58//28 57//28
f 58//29 60//29 59//29
f 60//30 62//30 61//30
f 4//31 52//31 36//31
f 64//32 2//32 1//32
f 62//33 64//33 63//33
f 1//34 9//34 33//34
f 1//1 2//1 3//1
f 3//2 4//2 5//2
f 5//3 6//3 7//3
f 7//4 8//4 9//4
f 9//5 10//5 11//5
f 11//6 12//6 13//6
f 13//7 14//7 15//7
f 15//8 16//8 17//8
f 17//9 18//9 19//9
f 19//10 20//10 21//10
f 21//11 22//11 23//11
f 23//12 24//12 25//12
f 25//13 26//13 27//13
f 27//14 28//14 29//14
f 29//15 30//15 31//15
f 31//16 32//16 33//16
f 33//17 34//17 35//17
f 35//18 36//18 37//18
f 37//19 38//19 39//19
f 39//20 40//20 41//20
f 41//21 42//21 43//21
f 43//22 44//22 45//22
f 45//23 46//23 47//23
f 47//24 48//24 49//24
f 49//25 50//25 51//25
f 51//26 52//26 53//26
f 53//27 54//27 55//27
f 55//28 56//28 57//28
f 57//29 58//29 59//29
f 59//30 60//30 61//30
f 12//31 6//31 4//31
f 6//31 10//31 8//31
f 20//31 14//31 12//31
f 20//31 18//31 16//31
f 36//31 22//31 20//31
f 28//31 26//31 24//31
f 32//31 30//31 28//31
f 36//31 34//31 32//31
f 50//31 38//31 36//31
f 44//31 42//31 40//31
f 48//31 46//31 44//31
f 38//31 50//31 48//31
f 60//31 54//31 52//31
f 54//31 58//31 56//31
f 64//31 62//31 60//31
f 4//31 2//31 64//31
f 12//31 10//31 6//31
f 20//31 16//31 14//31
f 36//31 24//31 22//31
f 36//31 32//31 28//31
f 48//31 40//31 38//31
f 40//31 48//31 44//31
f 60//31 58//31 54//31
f 4//31 64//31 60//31
f 36//31 12//31 4//31
f 36//31 28//31 24//31
f 52//31 50//31 36//31
f 4//31 60//31 52//31
f 36//31 20//31 12//31
f 63//32 64//32 1//32
f 61//33 62//33 63//33
f 61//34 63//34 1//34
f 57//34 59//34 61//34
f 53//34 55//34 57//34
f 49//34 51//34 53//34
f 45//34 47//34 49//34
f 41//34 43//34 45//34
f 35//34 39//34 41//34
f 39//34 35//34 37//34
f 29//34 31//34 33//34
f 21//34 27//34 29//34
f 21//34 23//34 25//34
f 17//34 19//34 21//34
f 13//34 15//34 17//34
f 9//34 11//34 13//34
f 5//34 7//34 9//34
f 1//34 3//34 5//34
f 57//34 61//34 1//34
f 49//34 53//34 57//34
f 41//34 45//34 49//34
f 33//34 35//34 41//34
f 17//34 29//34 33//34
f 27//34 21//34 25//34
f 9//34 13//34 17//34
f 1//34 5//34 9//34
f 49//34 57//34 1//34
f 33//34 41//34 49//34
f 17//34 21//34 29//34
f 33//34 9//34 17//34
f 33//34 49//34 1//34
o Cone
v 0.000000 0.327130 -0.329188
v 0.064221 0.327130 -0.322863
v 0.125975 0.327130 -0.304130
v 0.182887 0.327130 -0.273710
v 0.232771 0.327130 -0.232771
v 0.273710 0.327130 -0.182887
v 0.304130 0.327130 -0.125975
v 0.322863 0.327130 -0.064221
v 0.329188 0.327130 -0.000000
v 0.000000 0.985506 0.000000
v 0.322863 0.327130 0.064221
v 0.304130 0.327130 0.125975
v 0.273710 0.327130 0.182887
v 0.232771 0.327130 0.232771
v 0.182887 0.327130 0.273710
v 0.125975 0.327130 0.304130
v 0.064221 0.327130 0.322863
v -0.000000 0.327130 0.329188
v -0.064222 0.327130 0.322863
v -0.125975 0.327130 0.304130
v -0.182887 0.327130 0.273710
v -0.232771 0.327130 0.232771
v -0.273710 0.327130 0.182887
v -0.304130 0.327130 0.125975
v -0.322863 0.327130 0.064221
v -0.329188 0.327130 -0.000000
v -0.322863 0.327130 -0.064222
v -0.304130 0.327130 -0.125975
v -0.273710 0.327130 -0.182887
v -0.232771 0.327130 -0.232771
v -0.182887 0.327130 -0.273710
v -0.125974 0.327130 -0.304130
v -0.064221 0.327130 -0.322863
vn -0.259900 0.445500 -0.856700
vn 0.087800 0.445500 -0.891000
vn -0.422000 0.445500 -0.789600
vn -0.568000 0.445500 -0.692100
vn -0.692100 0.445500 -0.568000
vn -0.789600 0.445500 -0.422000
vn -0.856700 0.445500 -0.259900
vn -0.891000 0.445500 -0.087800
vn -0.891000 0.445500 0.087800
vn -0.856700 0.445500 0.259900
vn -0.789600 0.445500 0.422000
vn -0.692100 0.445500 0.568000
vn -0.568000 0.445500 0.692100
vn -0.422000 0.445500 0.789600
vn -0.259900 0.445500 0.856700
vn -0.087800 0.445500 0.891000
vn 0.087800 0.445500 0.891000
vn 0.259900 0.445500 0.856700
vn 0.422000 0.445500 0.789600
vn 0.568000 0.445500 0.692100
vn 0.692100 0.445500 0.568000
vn 0.789600 0.445500 0.422000
vn 0.856700 0.445500 0.259900
vn 0.891000 0.445500 0.087800
vn 0.891000 0.445500 -0.087800
vn 0.856700 0.445500 -0.259900
vn 0.789600 0.445500 -0.422000
vn 0.692100 0.445500 -0.568000
vn 0.568000 0.445500 -0.692100
vn 0.422000 0.445500 -0.789600
vn -0.087800 0.445500 -0.891000
vn 0.259900 0.445500 -0.856700
vn 0.000000 -1.000000 0.000000
usemtl Material.001
s off
f 96//35 74//35 97//35
f 65//36 74//36 66//36
f 95//37 74//37 96//37
f 94//38 74//38 95//38
f 93//39 74//39 94//39
f 92//40 74//40 93//40
f 91//41 74//41 92//41
f 90//42 74//42 91//42
f 89//43 74//43 90//43
f 88//44 74//44 89//44
f 87//45 74//45 88//45
f 86//46 74//46 87//46
f 85//47 74//47 86//47
f 84//48 74//48 85//48
f 83//49 74//49 84//49
f 82//50 74//50 83//50
f 81//51 74//51 82//51
f 80//52 74//52 81//52
f 79//53 74//53 80//53
f 78//54 74//54 79//54
f 77//55 74//55 78//55
f 76//56 74//56 77//56
f 75//57 74//57 76//57
f 73//58 74//58 75//58
f 72//59 74//59 73//59
f 71//60 74//60 72//60
f 70//61 74//61 71//61
f 69//62 74//62 70//62
f 68//63 74//63 69//63
f 67//64 74//64 68//64
f 97//65 74//65 65//65
f 66//66 74//66 67//66
f 65//67 73//67 75//67
f 96//67 97//67 65//67
f 94//67 95//67 96//67
f 92//67 93//67 94//67
f 94//67 91//67 92//67
f 91//67 89//67 90//67
f 89//67 87//67 88//67
f 87//67 85//67 86//67
f 94//67 83//67 84//67
f 65//67 81//67 82//67
f 81//67 79//67 80//67
f 76//67 77//67 78//67
f 81//67 75//67 76//67
f 69//67 72//67 73//67
f 69//67 70//67 71//67
f 66//67 68//67 69//67
f 68//67 66//67 67//67
f 82//67 96//67 65//67
f 84//67 89//67 94//67
f 84//67 85//67 89//67
f 87//67 89//67 85//67
f 78//67 79//67 81//67
f 81//67 76//67 78//67
f 69//67 71//67 72//67
f 65//67 66//67 69//67
f 82//67 94//67 96//67
f 91//67 94//67 89//67
f 65//67 75//67 81//67
f 65//67 69//67 73//67
f 82//67 83//67 94//67
